<?xml version="1.0" encoding="UTF-8"?>
<svg width="17px" height="17px" viewBox="0 0 17 17" version="1.1" xmlns="http://www.w3.org/2000/svg" xmlns:xlink="http://www.w3.org/1999/xlink">
    <!-- Generator: Sketch 63.1 (92452) - https://sketch.com -->
    <title>Shape</title>
    <desc>Created with Sketch.</desc>
    <g id="appactions-lab.svg" stroke="none" stroke-width="1" fill="none" fill-rule="evenodd">
        <g id="Artboard" transform="translate(-1.000000, -1.000000)" fill="#4A4A4A" fill-rule="nonzero">
            <g id="flask-solid-(1)" transform="translate(1.000000, 1.000000)">
                <path d="M16.5532294,13.3974609 L12.1158129,7.13867188 L12.1158129,2.125 L12.4187082,2.125 C12.9222717,2.125 13.3273942,1.76972656 13.3273942,1.328125 L13.3273942,0.796875 C13.3273942,0.355273437 12.9222717,0 12.4187082,0 L4.54342984,0 C4.03986637,0 3.63474388,0.355273437 3.63474388,0.796875 L3.63474388,1.328125 C3.63474388,1.76972656 4.03986637,2.125 4.54342984,2.125 L4.84632517,2.125 L4.84632517,7.13867188 L0.408908686,13.3974609 C-0.700445434,14.9613281 0.579287305,17 2.6844098,17 L14.2777283,17 C16.386637,17 17.6625835,14.9580078 16.5532294,13.3974609 Z M5.22115813,10.625 L7.04610245,8.0484375 C7.18619154,7.87578125 7.26570156,7.66328125 7.26570156,7.4375 L7.26570156,2.125 L9.68886414,2.125 L9.68886414,7.4375 C9.68886414,7.66660156 9.77216036,7.87578125 9.90846325,8.0484375 L11.7334076,10.625 L5.22115813,10.625 Z" id="Shape"></path>
            </g>
        </g>
    </g>
</svg>