<?xml version="1.0" encoding="UTF-8"?>
<svg width="20px" height="20px" viewBox="0 0 20 20" version="1.1" xmlns="http://www.w3.org/2000/svg" xmlns:xlink="http://www.w3.org/1999/xlink">
    <!-- Generator: Sketch 63.1 (92452) - https://sketch.com -->
    <title>Artboard</title>
    <desc>Created with Sketch.</desc>
    <g id="Artboard" stroke="none" stroke-width="1" fill="none" fill-rule="evenodd">
        <g id="book-reader-solid" fill="#4A4A4A" fill-rule="nonzero">
            <path d="M13.037037,3.5625 C13.037037,1.59496094 11.4451852,0 9.48148148,0 C7.51777778,0 5.92592593,1.59496094 5.92592593,3.5625 C5.92592593,5.53003906 7.51777778,7.125 9.48148148,7.125 C11.4451852,7.125 13.037037,5.53003906 13.037037,3.5625 Z M8.65148148,8.94707031 C6.45407407,7.59925781 2.89481481,7.22890625 1.1037037,7.12685547 C0.501851852,7.09271484 0,7.55212891 0,8.13214844 L0,16.4001172 C0,16.9318945 0.429259259,17.3753516 0.981111111,17.4039258 C2.59814815,17.4889062 5.86962963,17.8002539 8.13074074,18.9413672 C8.47777778,19.1165234 8.88925926,18.8779102 8.88925926,18.5008789 L8.88925926,9.37234375 C8.88888889,9.19904297 8.80333333,9.04021484 8.65148148,8.94707031 Z M17.8592593,7.12685547 C16.0685185,7.22853516 12.5088889,7.59925781 10.3118519,8.94707031 C10.16,9.04021484 10.0744444,9.20535156 10.0744444,9.37865234 L10.0744444,18.4997656 C10.0744444,18.8779102 10.487037,19.1168945 10.8351852,18.9413672 C13.0959259,17.8013672 16.3655556,17.4900195 17.9822222,17.4050391 C18.5340741,17.3760937 18.9633333,16.9326367 18.9633333,16.4008594 L18.9633333,8.13214844 C18.962963,7.55212891 18.4611111,7.09271484 17.8592593,7.12685547 L17.8592593,7.12685547 Z" id="Shape"></path>
        </g>
    </g>
</svg>