<?xml version="1.0" encoding="UTF-8"?>
<svg width="20px" height="20px" viewBox="0 0 20 20" version="1.1" xmlns="http://www.w3.org/2000/svg" xmlns:xlink="http://www.w3.org/1999/xlink">
    <!-- Generator: Sketch 63.1 (92452) - https://sketch.com -->
    <title>Artboard</title>
    <desc>Created with Sketch.</desc>
    <g id="Artboard" stroke="none" stroke-width="1" fill="none" fill-rule="evenodd">
        <g id="comments-solid" transform="translate(0.000000, 3.000000)" fill="#4A4A4A" fill-rule="nonzero">
            <path d="M13.7222222,5.27777778 C13.7222222,2.36180556 10.6512153,0 6.86111111,0 C3.07100694,0 0,2.36180556 0,5.27777778 C0,6.40920139 0.465104167,7.4515625 1.25347222,8.3125 C0.811458333,9.30868056 0.0824652778,10.1003472 0.0725694444,10.1102431 C0,10.1861111 -0.0197916667,10.2982639 0.0230902778,10.3972222 C0.0659722222,10.4961806 0.158333333,10.5555556 0.263888889,10.5555556 C1.47118056,10.5555556 2.47065972,10.1498264 3.18975694,9.73090278 C4.25190972,10.2487847 5.50868056,10.5555556 6.86111111,10.5555556 C10.6512153,10.5555556 13.7222222,8.19375 13.7222222,5.27777778 Z M17.7465278,12.5347222 C18.5348958,11.6770833 19,10.6314236 19,9.5 C19,7.29322917 17.2352431,5.403125 14.7348958,4.61475694 C14.7645833,4.83246528 14.7777778,5.05347222 14.7777778,5.27777778 C14.7777778,8.77100694 11.2251736,11.6111111 6.86111111,11.6111111 C6.50486111,11.6111111 6.15850694,11.5847222 5.81545139,11.5484375 C6.85451389,13.4451389 9.29548611,14.7777778 12.1388889,14.7777778 C13.4913194,14.7777778 14.7480903,14.4743056 15.8102431,13.953125 C16.5293403,14.3720486 17.5288194,14.7777778 18.7361111,14.7777778 C18.8416667,14.7777778 18.9373264,14.7151042 18.9769097,14.6194444 C19.0197917,14.5237847 19,14.4116319 18.9274306,14.3324653 C18.9175347,14.3225694 18.1885417,13.5342014 17.7465278,12.5347222 Z" id="Shape"></path>
        </g>
    </g>
</svg>