<?xml version="1.0" encoding="UTF-8"?>
<svg width="20px" height="20px" viewBox="0 0 20 20" version="1.1" xmlns="http://www.w3.org/2000/svg" xmlns:xlink="http://www.w3.org/1999/xlink">
    <!-- Generator: Sketch 63.1 (92452) - https://sketch.com -->
    <title>Artboard</title>
    <desc>Created with Sketch.</desc>
    <g id="Artboard" stroke="none" stroke-width="1" fill="none" fill-rule="evenodd">
        <g id="hands-helping-solid" transform="translate(1.000000, 3.000000)" fill="#4A4A4A" fill-rule="nonzero">
            <path d="M13.7316693,5.39157566 L9.46333853,5.39157566 L9.46333853,6.96411856 C9.46333853,8.07893916 8.55631825,8.98595944 7.44149766,8.98595944 C6.32667707,8.98595944 5.41965679,8.07893916 5.41965679,6.96411856 L5.41965679,3.54945398 L3.59719189,4.64461778 C3.05522621,4.9675507 2.72386895,5.55444618 2.72386895,6.18346334 L2.72386895,7.51170047 L0.477379095,8.80904836 C0.0477379095,9.05616225 -0.101092044,9.60655226 0.148829953,10.0361934 L2.39531981,13.9282371 C2.6424337,14.3578783 3.19282371,14.5039002 3.6224649,14.2567863 L6.52605304,12.5803432 L10.3619345,12.5803432 C11.3531981,12.5803432 12.1591264,11.774415 12.1591264,10.7831513 L12.6084243,10.7831513 C13.1054602,10.7831513 13.5070203,10.3815913 13.5070203,9.88455538 L13.5070203,8.08736349 L13.7316693,8.08736349 C14.1051482,8.08736349 14.4056162,7.78689548 14.4056162,7.41341654 L14.4056162,6.06552262 C14.4056162,5.69204368 14.1051482,5.39157566 13.7316693,5.39157566 Z M17.8792512,4.34134165 L15.6327613,0.449297972 C15.3856474,0.0196567863 14.8352574,-0.126365055 14.4056162,0.12074883 L11.5020281,1.79719189 L8.63213729,1.79719189 C8.29516381,1.79719189 7.96661466,1.89266771 7.68018721,2.06957878 L6.73946958,2.65647426 C6.47550702,2.81934477 6.31825273,3.10858034 6.31825273,3.4174727 L6.31825273,6.96411856 C6.31825273,7.58471139 6.82090484,8.08736349 7.44149766,8.08736349 C8.06209048,8.08736349 8.56474259,7.58471139 8.56474259,6.96411856 L8.56474259,4.49297972 L13.7316693,4.49297972 C14.599376,4.49297972 15.3042122,5.19781591 15.3042122,6.06552262 L15.3042122,6.86583463 L17.550702,5.56848674 C17.9803432,5.31856474 18.1263651,4.77098284 17.8792512,4.34134165 Z" id="Shape"></path>
        </g>
    </g>
</svg>