<?xml version="1.0" encoding="UTF-8"?>
<svg width="20px" height="20px" viewBox="0 0 20 20" version="1.1" xmlns="http://www.w3.org/2000/svg" xmlns:xlink="http://www.w3.org/1999/xlink">
    <!-- Generator: Sketch 63.1 (92452) - https://sketch.com -->
    <title>Artboard</title>
    <desc>Created with Sketch.</desc>
    <g id="Artboard" stroke="none" stroke-width="1" fill="none" fill-rule="evenodd">
        <g id="microphone-alt-solid" transform="translate(4.000000, 1.000000)" fill="#4A4A4A" fill-rule="nonzero">
            <path d="M12.4090909,7.09090909 L11.8181818,7.09090909 C11.4917045,7.09090909 11.2272727,7.35534091 11.2272727,7.68181818 L11.2272727,9.45454545 C11.2272727,12.2170455 8.84553977,14.4336932 6.02764205,14.1589205 C3.57167614,13.919233 1.77272727,11.7114489 1.77272727,9.24403409 L1.77272727,7.68181818 C1.77272727,7.35534091 1.50829545,7.09090909 1.18181818,7.09090909 L0.590909091,7.09090909 C0.264431818,7.09090909 0,7.35534091 0,7.68181818 L0,9.165 C0,12.4755682 2.36252841,15.4267898 5.61363636,15.875142 L5.61363636,17.1363636 L3.54545455,17.1363636 C3.21897727,17.1363636 2.95454545,17.4007955 2.95454545,17.7272727 L2.95454545,18.3181818 C2.95454545,18.6446591 3.21897727,18.9090909 3.54545455,18.9090909 L9.45454545,18.9090909 C9.78102273,18.9090909 10.0454545,18.6446591 10.0454545,18.3181818 L10.0454545,17.7272727 C10.0454545,17.4007955 9.78102273,17.1363636 9.45454545,17.1363636 L7.38636364,17.1363636 L7.38636364,15.8891761 C10.5517898,15.454858 13,12.7377841 13,9.45454545 L13,7.68181818 C13,7.35534091 12.7355682,7.09090909 12.4090909,7.09090909 Z M6.5,13 C8.458125,13 10.0454545,11.4126705 10.0454545,9.45454545 L6.8940625,9.45454545 C6.67653409,9.45454545 6.5,9.32232955 6.5,9.15909091 L6.5,8.56818182 C6.5,8.40494318 6.67653409,8.27272727 6.8940625,8.27272727 L10.0454545,8.27272727 L10.0454545,7.09090909 L6.8940625,7.09090909 C6.67653409,7.09090909 6.5,6.95869318 6.5,6.79545455 L6.5,6.20454545 C6.5,6.04130682 6.67653409,5.90909091 6.8940625,5.90909091 L10.0454545,5.90909091 L10.0454545,4.72727273 L6.8940625,4.72727273 C6.67653409,4.72727273 6.5,4.59505682 6.5,4.43181818 L6.5,3.84090909 C6.5,3.67767045 6.67653409,3.54545455 6.8940625,3.54545455 L10.0454545,3.54545455 C10.0454545,1.58732955 8.458125,0 6.5,0 C4.541875,0 2.95454545,1.58732955 2.95454545,3.54545455 L2.95454545,9.45454545 C2.95454545,11.4126705 4.541875,13 6.5,13 Z" id="Shape"></path>
        </g>
    </g>
</svg>